<!-- SVG sprite. Use with <svg><use href="/assets/svg/icons.svg#video"/></svg>.
     Outline icons, hand-tuned, no emojis anywhere. -->
<svg xmlns="http://www.w3.org/2000/svg" style="display:none" aria-hidden="true">
  <defs>
    <symbol id="video" viewBox="0 0 24 24" fill="none" stroke="currentColor" stroke-width="1.8" stroke-linecap="round" stroke-linejoin="round">
      <rect x="3" y="6" width="13" height="12" rx="3"/><path d="M16 10l5-3v10l-5-3z"/>
    </symbol>
    <symbol id="film" viewBox="0 0 24 24" fill="none" stroke="currentColor" stroke-width="1.8" stroke-linecap="round" stroke-linejoin="round">
      <rect x="3" y="4" width="18" height="16" rx="2"/><path d="M7 4v16M17 4v16M3 9h4M3 15h4M17 9h4M17 15h4"/>
    </symbol>
    <symbol id="text" viewBox="0 0 24 24" fill="none" stroke="currentColor" stroke-width="1.8" stroke-linecap="round" stroke-linejoin="round">
      <path d="M4 6h16M4 12h12M4 18h8"/>
    </symbol>
    <symbol id="globe" viewBox="0 0 24 24" fill="none" stroke="currentColor" stroke-width="1.8" stroke-linecap="round" stroke-linejoin="round">
      <circle cx="12" cy="12" r="9"/><path d="M3 12h18M12 3a14 14 0 010 18M12 3a14 14 0 000 18"/>
    </symbol>
    <symbol id="mic" viewBox="0 0 24 24" fill="none" stroke="currentColor" stroke-width="1.8" stroke-linecap="round" stroke-linejoin="round">
      <rect x="9" y="3" width="6" height="12" rx="3"/><path d="M5 11a7 7 0 0014 0M12 18v3"/>
    </symbol>
    <symbol id="wave" viewBox="0 0 24 24" fill="none" stroke="currentColor" stroke-width="1.8" stroke-linecap="round" stroke-linejoin="round">
      <path d="M2 12h2l2-6 4 12 4-9 4 6 4-3"/>
    </symbol>
    <symbol id="music" viewBox="0 0 24 24" fill="none" stroke="currentColor" stroke-width="1.8" stroke-linecap="round" stroke-linejoin="round">
      <path d="M9 18V5l11-2v13"/><circle cx="6" cy="18" r="3"/><circle cx="17" cy="16" r="3"/>
    </symbol>
    <symbol id="people" viewBox="0 0 24 24" fill="none" stroke="currentColor" stroke-width="1.8" stroke-linecap="round" stroke-linejoin="round">
      <circle cx="8" cy="9" r="3"/><circle cx="16" cy="9" r="3"/><path d="M2 20c0-3 3-5 6-5s6 2 6 5M22 20c0-2.5-2-4-4-4"/>
    </symbol>
    <symbol id="person" viewBox="0 0 24 24" fill="none" stroke="currentColor" stroke-width="1.8" stroke-linecap="round" stroke-linejoin="round">
      <circle cx="12" cy="8" r="4"/><path d="M4 21c0-4 4-6 8-6s8 2 8 6"/>
    </symbol>
    <symbol id="grid" viewBox="0 0 24 24" fill="none" stroke="currentColor" stroke-width="1.8" stroke-linecap="round" stroke-linejoin="round">
      <rect x="3" y="3" width="7" height="7" rx="1.5"/><rect x="14" y="3" width="7" height="7" rx="1.5"/>
      <rect x="3" y="14" width="7" height="7" rx="1.5"/><rect x="14" y="14" width="7" height="7" rx="1.5"/>
    </symbol>
    <symbol id="image" viewBox="0 0 24 24" fill="none" stroke="currentColor" stroke-width="1.8" stroke-linecap="round" stroke-linejoin="round">
      <rect x="3" y="4" width="18" height="16" rx="2"/><circle cx="9" cy="10" r="2"/><path d="M21 17l-5-5-9 9"/>
    </symbol>
    <symbol id="sparkles" viewBox="0 0 24 24" fill="none" stroke="currentColor" stroke-width="1.8" stroke-linecap="round" stroke-linejoin="round">
      <path d="M12 3l1.6 4.6L18 9l-4.4 1.4L12 15l-1.6-4.6L6 9l4.4-1.4z"/>
      <path d="M19 16l.8 2 2 .8-2 .8-.8 2-.8-2-2-.8 2-.8z"/>
    </symbol>
    <symbol id="brush" viewBox="0 0 24 24" fill="none" stroke="currentColor" stroke-width="1.8" stroke-linecap="round" stroke-linejoin="round">
      <path d="M14 4l6 6-8 8H6v-6z"/><path d="M14 4l6 6"/>
    </symbol>
    <symbol id="cut" viewBox="0 0 24 24" fill="none" stroke="currentColor" stroke-width="1.8" stroke-linecap="round" stroke-linejoin="round">
      <circle cx="6" cy="6" r="3"/><circle cx="6" cy="18" r="3"/><path d="M20 4L9 14M20 20L9 10"/>
    </symbol>
    <symbol id="flash" viewBox="0 0 24 24" fill="none" stroke="currentColor" stroke-width="1.8" stroke-linecap="round" stroke-linejoin="round">
      <path d="M13 3L4 14h7l-1 7 9-11h-7z"/>
    </symbol>
    <symbol id="chat" viewBox="0 0 24 24" fill="none" stroke="currentColor" stroke-width="1.8" stroke-linecap="round" stroke-linejoin="round">
      <path d="M21 12a8 8 0 11-3.5-6.6L21 4l-1.5 3.5A8 8 0 0121 12z"/>
    </symbol>
    <symbol id="forward" viewBox="0 0 24 24" fill="none" stroke="currentColor" stroke-width="1.8" stroke-linecap="round" stroke-linejoin="round">
      <path d="M5 4l10 8-10 8zM19 4v16"/>
    </symbol>
    <symbol id="swap" viewBox="0 0 24 24" fill="none" stroke="currentColor" stroke-width="1.8" stroke-linecap="round" stroke-linejoin="round">
      <path d="M7 4l-4 4 4 4M3 8h14M17 12l4 4-4 4M21 16H7"/>
    </symbol>
    <symbol id="filter" viewBox="0 0 24 24" fill="none" stroke="currentColor" stroke-width="1.8" stroke-linecap="round" stroke-linejoin="round">
      <path d="M3 5h18l-7 9v6l-4-2v-4z"/>
    </symbol>
    <symbol id="library" viewBox="0 0 24 24" fill="none" stroke="currentColor" stroke-width="1.8" stroke-linecap="round" stroke-linejoin="round">
      <path d="M4 4h3v16H4zM10 4h3v16h-3z"/><path d="M16 5l3 1-3 14-3-1z"/>
    </symbol>
    <symbol id="wand" viewBox="0 0 24 24" fill="none" stroke="currentColor" stroke-width="1.8" stroke-linecap="round" stroke-linejoin="round">
      <path d="M3 21l11-11M14 5l1 2 2 1-2 1-1 2-1-2-2-1 2-1zM19 13l1 2 2 1-2 1-1 2-1-2-2-1 2-1z"/>
    </symbol>
    <symbol id="disc" viewBox="0 0 24 24" fill="none" stroke="currentColor" stroke-width="1.8" stroke-linecap="round" stroke-linejoin="round">
      <circle cx="12" cy="12" r="9"/><circle cx="12" cy="12" r="2.5"/>
    </symbol>
    <symbol id="play" viewBox="0 0 24 24" fill="none" stroke="currentColor" stroke-width="1.8" stroke-linecap="round" stroke-linejoin="round">
      <path d="M6 4l14 8-14 8z"/>
    </symbol>
    <symbol id="document" viewBox="0 0 24 24" fill="none" stroke="currentColor" stroke-width="1.8" stroke-linecap="round" stroke-linejoin="round">
      <path d="M6 3h9l4 4v14H6z"/><path d="M15 3v5h4M9 13h6M9 17h6"/>
    </symbol>
    <symbol id="apps" viewBox="0 0 24 24" fill="none" stroke="currentColor" stroke-width="1.8" stroke-linecap="round" stroke-linejoin="round">
      <rect x="3" y="3" width="5" height="5" rx="1"/><rect x="10" y="3" width="5" height="5" rx="1"/>
      <rect x="17" y="3" width="4" height="5" rx="1"/><rect x="3" y="10" width="5" height="5" rx="1"/>
      <rect x="10" y="10" width="5" height="5" rx="1"/><rect x="17" y="10" width="4" height="5" rx="1"/>
      <rect x="3" y="17" width="5" height="4" rx="1"/><rect x="10" y="17" width="5" height="4" rx="1"/>
    </symbol>
    <symbol id="arrow-right" viewBox="0 0 24 24" fill="none" stroke="currentColor" stroke-width="1.8" stroke-linecap="round" stroke-linejoin="round">
      <path d="M5 12h14M13 6l6 6-6 6"/>
    </symbol>
    <symbol id="check" viewBox="0 0 24 24" fill="none" stroke="currentColor" stroke-width="1.8" stroke-linecap="round" stroke-linejoin="round">
      <path d="M4 12l5 5L20 6"/>
    </symbol>
    <symbol id="apple" viewBox="0 0 24 24" fill="currentColor">
      <path d="M16.5 12.6c0-2.3 1.9-3.4 2-3.5-1.1-1.6-2.8-1.8-3.4-1.8-1.4-.1-2.8.8-3.5.8-.7 0-1.9-.8-3.1-.8-1.6 0-3.1.9-3.9 2.4-1.7 2.9-.4 7.1 1.2 9.4.8 1.1 1.7 2.4 3 2.4 1.2-.1 1.7-.8 3.2-.8 1.5 0 1.9.8 3.2.8 1.3 0 2.2-1.1 3-2.3.9-1.3 1.3-2.6 1.3-2.7-.1 0-2.5-1-2.5-3.9zM14.3 5.4c.6-.8 1.1-1.9 1-3-.9 0-2.1.6-2.8 1.4-.6.7-1.2 1.8-1.1 2.9 1.1.1 2.2-.5 2.9-1.3z"/>
    </symbol>
    <symbol id="play-store" viewBox="0 0 24 24" fill="currentColor">
      <path d="M3 2.3v19.4c0 .4.2.7.5.9l11.1-11.1L3.5 1.4c-.3.2-.5.5-.5.9zm14.6 8.5L5.5 4l9.7 9.7 2.4-2.9zm-12 11.9L17.6 13l-2.4-2.4-9.7 11.1zM20 10l-2.6-1.5-2.8 2.8 2.8 2.8L20 13c1-.5 1-2 0-3z"/>
    </symbol>
    <symbol id="google" viewBox="0 0 24 24" fill="none">
      <path fill="#EA4335" d="M12 11v3.2h4.6c-.2 1.2-1.5 3.4-4.6 3.4-2.8 0-5-2.3-5-5.1S9.2 7.4 12 7.4c1.6 0 2.6.7 3.2 1.2l2.2-2.1C16 5.2 14.2 4.4 12 4.4 7.6 4.4 4 8 4 12.5S7.6 20.6 12 20.6c4.6 0 7.7-3.2 7.7-7.8 0-.5-.1-1-.2-1.8H12z"/>
    </symbol>
    <symbol id="github" viewBox="0 0 24 24" fill="currentColor">
      <path d="M12 .3a12 12 0 00-3.8 23.4c.6.1.8-.3.8-.6v-2.1c-3.3.7-4-1.6-4-1.6-.5-1.4-1.3-1.7-1.3-1.7-1-.7.1-.7.1-.7 1.2.1 1.8 1.2 1.8 1.2 1.1 1.8 2.8 1.3 3.5 1 .1-.8.4-1.3.8-1.6-2.7-.3-5.5-1.3-5.5-5.9 0-1.3.5-2.4 1.2-3.2-.1-.3-.5-1.5.1-3.2 0 0 1-.3 3.3 1.2a11.4 11.4 0 016 0c2.3-1.5 3.3-1.2 3.3-1.2.7 1.7.2 2.9.1 3.2.8.8 1.2 1.9 1.2 3.2 0 4.6-2.8 5.6-5.5 5.9.4.4.8 1.1.8 2.2v3.3c0 .3.2.7.8.6A12 12 0 0012 .3z"/>
    </symbol>
  </defs>
</svg>
